<svg xmlns="http://www.w3.org/2000/svg" xmlns:xlink="http://www.w3.org/1999/xlink" width="24" height="16"><defs><rect id="a" width="24" height="16" x="0" y="0" rx="2"/></defs><g fill="none" fill-rule="evenodd"><mask id="b" fill="#fff"><use xlink:href="#a"/></mask><use fill="#FFF" xlink:href="#a"/><g fill-rule="nonzero" mask="url(#b)"><path fill="#3F9C35" d="M0 0h24v16H0z"/><path fill="#ED2939" d="M0 0h24v10.667H0z"/><path fill="#00B9E4" d="M0 0h24v5.333H0z"/><circle cx="11.467" cy="8" r="2.4" fill="#FFF"/><circle cx="12" cy="8" r="2" fill="#ED2939"/><path fill="#FFF" d="M14.133 6.667l.255.717.688-.327-.327.688.718.255-.718.255.327.688-.688-.327-.255.717-.255-.717-.687.327.326-.688L12.8 8l.717-.255-.326-.688.687.327z"/></g></g></svg>